<?xml version="1.0" encoding="UTF-8" standalone="no"?>
<!DOCTYPE svg PUBLIC "-//W3C//DTD SVG 1.1//EN" "http://www.w3.org/Graphics/SVG/1.1/DTD/svg11.dtd">
<svg width="100%" height="100%" viewBox="0 0 743 633" version="1.1" xmlns="http://www.w3.org/2000/svg" xmlns:xlink="http://www.w3.org/1999/xlink" xml:space="preserve" xmlns:serif="http://www.serif.com/" style="fill-rule:evenodd;clip-rule:evenodd;stroke-miterlimit:8;">
    <g transform="matrix(1.30246,0,0,1.30246,-189.462,-26.4829)">
        <g>
            <g>
                <clipPath id="_clip1">
                    <rect x="147" y="20.333" width="570.459" height="499.761"/>
                </clipPath>
                <g clip-path="url(#_clip1)">
                    <g transform="matrix(-1.21399e-06,0.000163646,0.000163777,1.21301e-06,295.076,355.041)">
                        <path d="M-5107.71,47624L444044,47624" style="fill:none;fill-rule:nonzero;stroke:rgb(166,202,236);stroke-width:76187.5px;"/>
                    </g>
                    <g transform="matrix(-1.21399e-06,0.000163646,0.000163777,1.21301e-06,238.776,316.415)">
                        <path d="M-5107.71,47624L444044,47624" style="fill:none;fill-rule:nonzero;stroke:rgb(180,229,162);stroke-width:76187.5px;"/>
                    </g>
                    <g transform="matrix(-1.21399e-06,0.000163646,0.000163777,1.21301e-06,347.142,395.722)">
                        <path d="M-5107.71,47624L444044,47624" style="fill:none;fill-rule:nonzero;stroke:rgb(242,170,132);stroke-width:76187.5px;"/>
                    </g>
                    <g transform="matrix(-1.21399e-06,0.000163646,0.000163777,1.21301e-06,405.232,409.112)">
                        <path d="M-5107.71,47624L444044,47624" style="fill:none;fill-rule:nonzero;stroke:rgb(229,158,221);stroke-width:76187.5px;"/>
                    </g>
                    <g transform="matrix(-1.21399e-06,0.000163646,0.000163777,1.21301e-06,463.218,365.092)">
                        <path d="M-5107.71,47624L444044,47624" style="fill:none;fill-rule:nonzero;stroke:rgb(174,174,174);stroke-width:76187.5px;"/>
                    </g>
                    <g transform="matrix(-1.21399e-06,0.000163646,0.000163777,1.21301e-06,506.915,326.265)">
                        <path d="M-5107.71,47624L444044,47624" style="fill:none;fill-rule:nonzero;stroke:rgb(174,174,174);stroke-width:76187.5px;"/>
                    </g>
                    <g transform="matrix(-1.21399e-06,0.000163646,0.000163777,1.21301e-06,555.283,309.921)">
                        <path d="M-5107.71,47624L444044,47624" style="fill:none;fill-rule:nonzero;stroke:rgb(174,174,174);stroke-width:76187.5px;"/>
                    </g>
                    <g transform="matrix(-1.21399e-06,0.000163646,0.000163777,1.21301e-06,608.428,335.854)">
                        <path d="M-5107.71,47624L444044,47624" style="fill:none;fill-rule:nonzero;stroke:rgb(174,174,174);stroke-width:76187.5px;"/>
                    </g>
                    <g transform="matrix(-1.21399e-06,0.000163646,0.000163777,1.21301e-06,659.786,379.491)">
                        <path d="M-5107.71,47624L444044,47624" style="fill:none;fill-rule:nonzero;stroke:rgb(174,174,174);stroke-width:76187.5px;"/>
                    </g>
                    <g transform="matrix(-1.21399e-06,0.000163646,0.000163777,1.21301e-06,178.702,308.384)">
                        <path d="M-5107.71,47624L444044,47624" style="fill:none;fill-rule:nonzero;stroke:rgb(242,170,132);stroke-width:76187.5px;"/>
                    </g>
                    <g transform="matrix(-0.999702,-0.02443,0.0245342,-0.999699,0,0)">
                        <g transform="matrix(1.00079,3.46945e-18,5.21422e-05,1,-495.699,-368.916)">
                            <text x="0px" y="0px" style="font-family:'ArialMT', 'Arial', sans-serif;font-size:41.466px;">N</text>
                        </g>
                        <g transform="matrix(1.00079,6.93889e-18,5.21422e-05,1,-538.325,-325.115)">
                            <text x="0px" y="0px" style="font-family:'ArialMT', 'Arial', sans-serif;font-size:41.466px;">N</text>
                        </g>
                    </g>
                    <g transform="matrix(-1.00049,-0.0244493,0.0244821,-0.9997,579.157,327.042)">
                        <g>
                            <text x="0px" y="0px" style="font-family:'ArialMT', 'Arial', sans-serif;font-size:41.466px;">N</text>
                        </g>
                    </g>
                    <g transform="matrix(-1.00049,-0.0244493,0.0244821,-0.9997,632.329,351.051)">
                        <g>
                            <text x="0px" y="0px" style="font-family:'ArialMT', 'Arial', sans-serif;font-size:41.466px;">N</text>
                        </g>
                    </g>
                    <g transform="matrix(-1.00049,-0.0244493,0.0244821,-0.9997,683.602,389.697)">
                        <g>
                            <text x="0px" y="0px" style="font-family:'ArialMT', 'Arial', sans-serif;font-size:41.466px;">N</text>
                        </g>
                    </g>
                    <g transform="matrix(4.87487e-05,-0.000156234,-0.000156358,-4.871e-05,636.82,700.106)">
                        <path d="M813344,3.48157e+06C934730,3.35041e+06 982466,3.31305e+06 1.06809e+06,3.04441e+06C1.1841e+06,2.68045e+06 674310,2.10491e+06 773980,1.77501e+06C873651,1.44511e+06 1.56155e+06,1.36084e+06 1.66612e+06,1.06501e+06C1.77069e+06,769172 1.36874e+06,120127 1.40142e+06,0" style="fill:none;fill-rule:nonzero;stroke:rgb(11,118,160);stroke-width:127057px;"/>
                    </g>
                    <g transform="matrix(4.88865e-05,-0.000156191,0.000156315,4.88477e-05,282.34,143.815)">
                        <path d="M-0,0.5L677332,0.5" style="fill:none;fill-rule:nonzero;stroke:rgb(166,202,236);stroke-width:76200px;"/>
                    </g>
                    <g transform="matrix(4.88865e-05,-0.000156191,0.000156315,4.88477e-05,318.569,158.04)">
                        <path d="M-0,0.5L677332,0.5" style="fill:none;fill-rule:nonzero;stroke:rgb(180,229,162);stroke-width:76200px;"/>
                    </g>
                    <g transform="matrix(4.88865e-05,-0.000156191,0.000156315,4.88477e-05,356.454,166.975)">
                        <path d="M-0,0.5L677332,0.5" style="fill:none;fill-rule:nonzero;stroke:rgb(242,170,132);stroke-width:76200px;"/>
                    </g>
                    <g transform="matrix(4.88865e-05,-0.000156191,0.000156315,4.88477e-05,477.753,146.81)">
                        <path d="M-0,0.5L677332,0.5" style="fill:none;fill-rule:nonzero;stroke:rgb(174,174,174);stroke-width:76200px;"/>
                    </g>
                    <g transform="matrix(4.88865e-05,-0.000156191,0.000156315,4.88477e-05,518.592,159.572)">
                        <path d="M-0,0.5L677332,0.5" style="fill:none;fill-rule:nonzero;stroke:rgb(174,174,174);stroke-width:76200px;"/>
                    </g>
                    <g transform="matrix(4.88865e-05,-0.000156191,0.000156315,4.88477e-05,566.359,154.174)">
                        <path d="M-0,0.5L558799,0.5" style="fill:none;fill-rule:nonzero;stroke:rgb(174,174,174);stroke-width:76200px;"/>
                    </g>
                    <g transform="matrix(4.88865e-05,-0.000156191,0.000156315,4.88477e-05,168.838,172.223)">
                        <path d="M-0,0.5L677332,0.5" style="fill:none;fill-rule:nonzero;stroke:rgb(229,158,221);stroke-width:76200px;"/>
                    </g>
                    <g transform="matrix(4.88865e-05,-0.000156191,0.000156315,4.88477e-05,672.095,129.354)">
                        <path d="M-0,0.5L558799,0.5" style="fill:none;fill-rule:nonzero;stroke:rgb(174,174,174);stroke-width:76200px;"/>
                    </g>
                    <g>
                        <g transform="matrix(1.0008,0,0,1,477.312,115.919)">
                            <text x="0px" y="0px" style="font-family:'ArialMT', 'Arial', sans-serif;font-size:41.466px;">N</text>
                        </g>
                        <g transform="matrix(1.0008,0,0,1,521.638,117.189)">
                            <text x="0px" y="0px" style="font-family:'ArialMT', 'Arial', sans-serif;font-size:41.466px;">N</text>
                        </g>
                        <g transform="matrix(1.0008,0,0,1,568.284,116.631)">
                            <text x="0px" y="0px" style="font-family:'ArialMT', 'Arial', sans-serif;font-size:41.466px;">N</text>
                        </g>
                    </g>
                    <g transform="matrix(1.0008,0,0,1,666.708,116.433)">
                        <text x="0px" y="0px" style="font-family:'ArialMT', 'Arial', sans-serif;font-size:41.466px;">N</text>
                    </g>
                    <g transform="matrix(4.88862e-05,-0.000156191,-0.000156315,-4.88474e-05,594.785,385.484)">
                        <path d="M401445,2.99258e+06C537287,2.59722e+06 1.41519e+06,2.53031e+06 1.54495e+06,2.16536e+06C1.67471e+06,1.80042e+06 1.05633e+06,1.16378e+06 1.18e+06,802888C1.30368e+06,441994 2.07818e+06,83127 2.28702e+06,0" style="fill:none;fill-rule:nonzero;stroke:rgb(33,95,154);stroke-width:127058px;"/>
                    </g>
                    <g transform="matrix(4.88862e-05,-0.000156191,-0.000156315,-4.88474e-05,607.407,418.521)">
                        <path d="M1.32535e+06,3.44269e+06C1.4693e+06,3.0311e+06 836719,2.38028e+06 960396,2.00722e+06C1.08407e+06,1.63416e+06 1.93765e+06,1.53887e+06 2.06741e+06,1.20433e+06C2.19717e+06,869795 1.6984e+06,135842 1.73896e+06,0" style="fill:none;fill-rule:nonzero;stroke:rgb(22,62,100);stroke-width:127058px;"/>
                    </g>
                    <g transform="matrix(1,0,0,1,0,3)">
                        <g transform="matrix(1.0008,0,0,1,-0.164498,0)">
                            <g>
                                <g transform="matrix(1,0,0,1,206.867,286.541)">
                                    <text x="0px" y="0px" style="font-family:'ArialMT', 'Arial', sans-serif;font-size:124.397px;fill:rgb(255,192,0);">V</text>
                                </g>
                                <g transform="matrix(1,0,0,1,288.805,286.541)">
                                    <g>
                                        <text x="0px" y="0px" style="font-family:'ArialMT', 'Arial', sans-serif;font-size:124.397px;fill:rgb(255,192,0);">i</text>
                                        <g transform="matrix(1,0,0,1,28.848,0)">
                                            <text x="0px" y="0px" style="font-family:'ArialMT', 'Arial', sans-serif;font-size:124.397px;fill:rgb(255,192,0);">r</text>
                                        </g>
                                    </g>
                                </g>
                            </g>
                        </g>
                        <g transform="matrix(1.0008,0,0,1,-0.286594,0)">
                            <g>
                                <g transform="matrix(1,0,0,1,360.412,286.541)">
                                    <text x="0px" y="0px" style="font-family:'ArialMT', 'Arial', sans-serif;font-size:124.397px;fill:rgb(131,203,235);">M</text>
                                </g>
                                <g transform="matrix(1,0,0,1,465.247,286.541)">
                                    <g>
                                        <text x="0px" y="0px" style="font-family:'ArialMT', 'Arial', sans-serif;font-size:124.397px;fill:rgb(131,203,235);">a</text>
                                        <g transform="matrix(1,0,0,1,70.395,0)">
                                            <text x="0px" y="0px" style="font-family:'ArialMT', 'Arial', sans-serif;font-size:124.397px;fill:rgb(131,203,235);">s<tspan x="63.41px " y="0px ">k</tspan></text>
                                        </g>
                                    </g>
                                </g>
                            </g>
                        </g>
                    </g>
                </g>
            </g>
        </g>
    </g>
</svg>
