<?xml version="1.0" encoding="UTF-8" standalone="no"?>
<!DOCTYPE svg PUBLIC "-//W3C//DTD SVG 1.1//EN" "http://www.w3.org/Graphics/SVG/1.1/DTD/svg11.dtd">
<svg width="100%" height="100%" viewBox="0 0 591 118" version="1.1" xmlns="http://www.w3.org/2000/svg" xmlns:xlink="http://www.w3.org/1999/xlink" xml:space="preserve" xmlns:serif="http://www.serif.com/" style="fill-rule:evenodd;clip-rule:evenodd;stroke-miterlimit:8;">
    <g transform="matrix(1.30246,0,0,1.30246,-270.15,-261.137)">
        <g>
            <g>
                <g>
                    <g>
                        <g>
                            <clipPath id="_clip1">
                                <rect x="147" y="20.333" width="570.459" height="499.761"/>
                            </clipPath>
                            <g clip-path="url(#_clip1)">
                                <g transform="matrix(4.87487e-05,-0.000156234,-0.000156358,-4.871e-05,636.82,700.106)">
                                    <path d="M813344,3.48157e+06C934730,3.35041e+06 982466,3.31305e+06 1.06809e+06,3.04441e+06C1.1841e+06,2.68045e+06 674310,2.10491e+06 773980,1.77501e+06C873651,1.44511e+06 1.56155e+06,1.36084e+06 1.66612e+06,1.06501e+06C1.77069e+06,769172 1.36874e+06,120127 1.40142e+06,0" style="fill:none;fill-rule:nonzero;stroke:rgb(11,118,160);stroke-width:127057px;"/>
                                </g>
                                <g transform="matrix(1,0,0,1,0,3)">
                                    <g transform="matrix(1.0008,0,0,1,-0.164498,0)">
                                        <g>
                                            <g transform="matrix(1,0,0,1,206.867,286.541)">
                                                <text x="0px" y="0px" style="font-family:'ArialMT', 'Arial', sans-serif;font-size:124.397px;fill:rgb(255,192,0);">V</text>
                                            </g>
                                            <g transform="matrix(1,0,0,1,288.805,286.541)">
                                                <g>
                                                    <text x="0px" y="0px" style="font-family:'ArialMT', 'Arial', sans-serif;font-size:124.397px;fill:rgb(255,192,0);">i</text>
                                                    <g transform="matrix(1,0,0,1,28.848,0)">
                                                        <text x="0px" y="0px" style="font-family:'ArialMT', 'Arial', sans-serif;font-size:124.397px;fill:rgb(255,192,0);">r</text>
                                                    </g>
                                                </g>
                                            </g>
                                        </g>
                                    </g>
                                    <g transform="matrix(1.0008,0,0,1,-0.286594,0)">
                                        <g>
                                            <g transform="matrix(1,0,0,1,360.412,286.541)">
                                                <text x="0px" y="0px" style="font-family:'ArialMT', 'Arial', sans-serif;font-size:124.397px;fill:rgb(131,203,235);">M</text>
                                            </g>
                                            <g transform="matrix(1,0,0,1,465.247,286.541)">
                                                <g>
                                                    <text x="0px" y="0px" style="font-family:'ArialMT', 'Arial', sans-serif;font-size:124.397px;fill:rgb(131,203,235);">a</text>
                                                    <g transform="matrix(1,0,0,1,70.395,0)">
                                                        <g>
                                                            <text x="0px" y="0px" style="font-family:'ArialMT', 'Arial', sans-serif;font-size:124.397px;fill:rgb(131,203,235);">s</text>
                                                            <g transform="matrix(1,0,0,1,63.41,0)">
                                                                <text x="0px" y="0px" style="font-family:'ArialMT', 'Arial', sans-serif;font-size:124.397px;fill:rgb(131,203,235);">k</text>
                                                            </g>
                                                        </g>
                                                    </g>
                                                </g>
                                            </g>
                                        </g>
                                    </g>
                                </g>
                            </g>
                        </g>
                    </g>
                </g>
            </g>
        </g>
    </g>
</svg>
